HIERARCHY
ROOT joint_Root
{
	OFFSET 0.0 0.0 0.0
	CHANNELS 6 Xposition Yposition Zposition Zrotation Xrotation Yrotation 
	JOINT Hips
	{
		OFFSET -17.1583 93.1646 452.98
		CHANNELS 6 Xposition Yposition Zposition Zrotation Xrotation Yrotation 
		JOINT Spine
		{
			OFFSET 15.7357 0.0 0.0
			CHANNELS 6 Xposition Yposition Zposition Zrotation Xrotation Yrotation 
			JOINT Chest
			{
				OFFSET 8.98455 -0.406207 0.0
				CHANNELS 6 Xposition Yposition Zposition Zrotation Xrotation Yrotation 
				JOINT Neck
				{
					OFFSET 16.3773 0.0 0.0
					CHANNELS 6 Xposition Yposition Zposition Zrotation Xrotation Yrotation 
					JOINT Head
					{
						OFFSET 6.45672 0.0 0.0
						CHANNELS 6 Xposition Yposition Zposition Zrotation Xrotation Yrotation 
						End Site
						{
							OFFSET 0.0 0.0 0.0
						}
					}
				}
				JOINT Shoulder_L
				{
					OFFSET 12.9942 -0.242716 4.98039
					CHANNELS 6 Xposition Yposition Zposition Zrotation Xrotation Yrotation 
					JOINT UpperArm_L
					{
						OFFSET 5.34809 0.0 0.0
						CHANNELS 6 Xposition Yposition Zposition Zrotation Xrotation Yrotation 
						JOINT LowerArm_L
						{
							OFFSET 24.3286 1.87007e-05 0.0
							CHANNELS 6 Xposition Yposition Zposition Zrotation Xrotation Yrotation 
							JOINT Hand_L
							{
								OFFSET 22.2916 0.0 0.0
								CHANNELS 6 Xposition Yposition Zposition Zrotation Xrotation Yrotation 
								End Site
								{
									OFFSET 0.0 0.0 0.0
								}
							}
						}
					}
				}
				JOINT Shoulder_R
				{
					OFFSET 12.9945 -0.242716 -4.98039
					CHANNELS 6 Xposition Yposition Zposition Zrotation Xrotation Yrotation 
					JOINT UpperArm_R
					{
						OFFSET -5.34813 0.0 0.0
						CHANNELS 6 Xposition Yposition Zposition Zrotation Xrotation Yrotation 
						JOINT LowerArm_R
						{
							OFFSET -24.3289 0.000322201 0.0
							CHANNELS 6 Xposition Yposition Zposition Zrotation Xrotation Yrotation 
							JOINT Hand_R
							{
								OFFSET -22.2915 -0.000108084 0.0
								CHANNELS 6 Xposition Yposition Zposition Zrotation Xrotation Yrotation 
								End Site
								{
									OFFSET 0.0 0.0 0.0
								}
							}
						}
					}
				}
			}
		}
		JOINT UpperLeg_L
		{
			OFFSET -2.19248 -6.46944 0.0
			CHANNELS 6 Xposition Yposition Zposition Zrotation Xrotation Yrotation 
			JOINT LowerLeg_L
			{
				OFFSET 39.0811 0.0 -1.23785e-05
				CHANNELS 6 Xposition Yposition Zposition Zrotation Xrotation Yrotation 
				JOINT Foot_L
				{
					OFFSET 40.9854 0.0 -1.26872e-05
					CHANNELS 6 Xposition Yposition Zposition Zrotation Xrotation Yrotation 
					JOINT Toes_L
					{
						OFFSET 11.7543 0.0 0.0
						CHANNELS 6 Xposition Yposition Zposition Zrotation Xrotation Yrotation 
						End Site
						{
							OFFSET 0.0 0.0 0.0
						}
					}
				}
			}
		}
		JOINT UpperLeg_R
		{
			OFFSET -2.19251 6.46944 0.0
			CHANNELS 6 Xposition Yposition Zposition Zrotation Xrotation Yrotation 
			JOINT LowerLeg_R
			{
				OFFSET -39.0811 -0.00228153 -0.0401928
				CHANNELS 6 Xposition Yposition Zposition Zrotation Xrotation Yrotation 
				JOINT Foot_R
				{
					OFFSET -40.9854 0.0 0.0
					CHANNELS 6 Xposition Yposition Zposition Zrotation Xrotation Yrotation 
					JOINT Toes_R
					{
						OFFSET -11.7543 0.0 0.0
						CHANNELS 6 Xposition Yposition Zposition Zrotation Xrotation Yrotation 
						End Site
						{
							OFFSET 0.0 0.0 0.0
						}
					}
				}
			}
		}
	}
}
MOTION
Frames:	5
Frame Time:	0.0333333
0.000000 0.000000 0.000000 0.000000 0.000000 -0.000000 -2.952290 91.770800 0.185945 84.334200 1.658690 5.581250 15.735700 0.000005 -0.000001 74.465300 86.980600 -71.075100 8.984550 -0.406207 -0.000000 -1.882860 -1.902120 6.748520 16.377300 -0.000001 -0.000001 10.163200 1.592910 -11.687800 6.456720 -0.000001 -0.000000 3.323020 -1.248340 -22.370900 12.994200 -0.242716 4.980390 -92.909500 7.713220 -69.259700 5.348090 -0.000007 -0.000001 -72.855100 4.642660 -2.092030 24.328600 0.000019 0.000005 47.771100 -46.053500 -123.165000 22.291600 -0.000001 0.000005 46.637200 4.750840 12.233100 12.994500 -0.242716 -4.980390 88.484900 4.311840 -70.617900 -5.348130 -0.000001 -0.000004 -69.818500 28.537900 -3.387290 -24.328900 0.000322 -0.000009 2.177310 7.481340 -16.285200 -22.291500 -0.000108 -0.000004 1.241610 5.217540 2.275520 -2.192480 -6.469440 -0.000000 -172.156000 4.915160 -2.369240 39.081100 -0.000007 -0.000012 0.338346 -0.619187 28.654500 40.985400 -0.000006 -0.000013 0.359713 9.751990 -76.934600 11.754300 -0.000000 0.000003 -0.000034 0.168201 -9.754650 -2.192510 6.469440 -0.000001 -170.252000 5.365720 -175.487000 -39.081100 -0.002282 -0.040193 0.145422 -0.477211 16.581600 -40.985400 0.000008 0.000006 4.643960 -2.194780 -71.891100 -11.754300 -0.000006 -0.000006 -0.009682 0.268915 -5.648720
0.000000 0.000000 0.000000 0.000000 0.000000 -0.000000 -2.934870 91.780800 0.152999 84.372500 1.722280 5.573980 15.735700 0.000005 -0.000001 74.272400 86.976100 -70.892400 8.984550 -0.406207 -0.000000 -1.879340 -1.923150 6.727710 16.377300 -0.000001 -0.000001 10.086400 1.583330 -11.688600 6.456720 -0.000001 -0.000000 3.303390 -1.247870 -22.401600 12.994200 -0.242716 4.980390 -92.902300 7.695910 -69.264200 5.348090 -0.000007 -0.000001 -72.843200 4.587510 -2.093730 24.328600 0.000019 0.000005 47.482200 -45.844900 -123.339000 22.291600 -0.000001 0.000005 46.408900 4.753270 12.188400 12.994500 -0.242716 -4.980390 88.481900 4.322280 -70.626300 -5.348130 -0.000001 -0.000004 -69.859100 28.479800 -3.373280 -24.328900 0.000322 -0.000009 2.163810 7.417110 -16.321600 -22.291500 -0.000108 -0.000004 1.253330 5.218900 2.240830 -2.192480 -6.469440 -0.000000 -172.207000 4.928080 -2.379470 39.081100 -0.000007 -0.000012 0.338659 -0.621093 28.602700 40.985400 -0.000006 -0.000013 0.403489 9.788970 -76.920400 11.754300 -0.000000 0.000003 -0.000155 0.170199 -9.673500 -2.192510 6.469440 -0.000001 -170.278000 5.298690 -175.532000 -39.081100 -0.002282 -0.040193 0.146256 -0.479824 16.587800 -40.985400 0.000008 0.000006 4.609430 -2.332330 -71.863900 -11.754300 -0.000006 -0.000006 -0.009922 0.270719 -5.574970
0.000000 0.000000 0.000000 0.000000 0.000000 -0.000000 -2.921860 91.787100 0.127055 84.418700 1.779670 5.604980 15.735700 0.000005 -0.000001 74.477900 86.963800 -71.107600 8.984550 -0.406207 -0.000000 -1.850370 -1.907220 6.709120 16.377300 -0.000001 -0.000001 10.081300 1.565800 -11.689600 6.456720 -0.000001 -0.000000 3.212380 -1.244750 -22.441100 12.994200 -0.242716 4.980390 -92.896900 7.703670 -69.318700 5.348090 -0.000007 -0.000001 -72.805200 4.523830 -2.031040 24.328600 0.000019 0.000005 47.247400 -45.661800 -123.473000 22.291600 -0.000001 0.000005 46.123700 4.756090 12.136100 12.994500 -0.242716 -4.980390 88.474400 4.334210 -70.586600 -5.348130 -0.000001 -0.000004 -69.877900 28.507900 -3.348500 -24.328900 0.000322 -0.000009 2.155000 7.346940 -16.404800 -22.291500 -0.000108 -0.000004 1.321580 5.218240 2.257780 -2.192480 -6.469440 -0.000000 -172.250000 4.886140 -2.360400 39.081100 -0.000007 -0.000012 0.335394 -0.616430 28.550900 40.985400 -0.000006 -0.000013 0.481134 9.829510 -76.855900 11.754300 -0.000000 0.000003 -0.000002 0.167659 -9.776670 -2.192510 6.469440 -0.000001 -170.336000 5.291610 -175.534000 -39.081100 -0.002282 -0.040193 0.145536 -0.476538 16.616400 -40.985400 0.000008 0.000006 4.592250 -2.360910 -71.859300 -11.754300 -0.000006 -0.000006 -0.009996 0.271271 -5.552360
0.000000 0.000000 0.000000 0.000000 0.000000 -0.000000 -2.923680 91.797800 0.075499 84.434100 1.829570 5.551680 15.735700 0.000005 -0.000001 74.115900 86.960100 -70.745000 8.984550 -0.406207 -0.000000 -1.852530 -1.946270 6.709710 16.377300 -0.000001 -0.000001 10.022500 1.599560 -11.713600 6.456720 -0.000001 -0.000000 3.186090 -1.207450 -22.426500 12.994200 -0.242716 4.980390 -92.888900 7.670330 -69.289700 5.348090 -0.000007 -0.000001 -72.816000 4.422670 -2.064720 24.328600 0.000019 0.000005 47.397600 -45.587200 -123.301000 22.291600 -0.000001 0.000005 46.050200 4.746710 12.308600 12.994500 -0.242716 -4.980390 88.480700 4.329330 -70.641500 -5.348130 -0.000001 -0.000004 -69.932600 28.445400 -3.353480 -24.328900 0.000322 -0.000009 2.166810 7.380550 -16.419200 -22.291500 -0.000108 -0.000004 1.307900 5.218940 2.239860 -2.192480 -6.469440 -0.000000 -172.268000 4.891810 -2.441190 39.081100 -0.000007 -0.000012 0.337404 -0.620884 28.521500 40.985400 -0.000006 -0.000013 0.504152 9.865640 -76.827500 11.754300 -0.000000 0.000003 -0.000127 0.169739 -9.692190 -2.192510 6.469440 -0.000001 -170.349000 5.336850 -175.626000 -39.081100 -0.002282 -0.040193 0.146255 -0.479292 16.605100 -40.985400 0.000008 0.000006 4.592330 -2.365410 -71.835600 -11.754300 -0.000006 -0.000006 -0.010044 0.271637 -5.537410
0.000000 0.000000 0.000000 0.000000 0.000000 -0.000000 -2.915160 91.805500 0.043846 84.442200 1.872710 5.574290 15.735700 0.000005 -0.000001 74.078200 86.936700 -70.702500 8.984550 -0.406207 -0.000000 -1.808140 -1.962030 6.719580 16.377300 -0.000001 -0.000001 10.036600 1.610010 -11.699100 6.456720 -0.000001 -0.000000 3.102700 -1.150330 -22.416700 12.994200 -0.242716 4.980390 -92.897800 7.704910 -69.315800 5.348090 -0.000007 -0.000001 -72.742000 4.224910 -2.044930 24.328600 0.000019 0.000005 46.985500 -45.404500 -123.599000 22.291600 -0.000001 0.000005 45.759800 4.754540 12.164800 12.994500 -0.242716 -4.980390 88.471500 4.355050 -70.638600 -5.348130 -0.000001 -0.000004 -69.919800 28.502500 -3.367740 -24.328900 0.000322 -0.000009 2.153310 7.330990 -16.426200 -22.291500 -0.000108 -0.000004 1.327940 5.219910 2.215190 -2.192480 -6.469440 -0.000000 -172.272000 4.912020 -2.438130 39.081100 -0.000007 -0.000012 0.337742 -0.622175 28.495600 40.985400 -0.000006 -0.000013 0.515498 9.923000 -76.799600 11.754300 -0.000000 0.000003 -0.000030 0.168120 -9.757930 -2.192510 6.469440 -0.000001 -170.348000 5.299320 -175.619000 -39.081100 -0.002282 -0.040193 0.145286 -0.476783 16.580700 -40.985400 0.000008 0.000006 4.579620 -2.443410 -71.804000 -11.754300 -0.000006 -0.000006 -0.009943 0.270881 -5.568310
